<?xml version="1.0" encoding="UTF-8"?>
<svg width="262px" height="268px" viewBox="0 0 262 268" version="1.1" xmlns="http://www.w3.org/2000/svg" xmlns:xlink="http://www.w3.org/1999/xlink">
    <!-- Generator: Sketch 54 (76480) - https://sketchapp.com -->
    <title>Group 18</title>
    <desc>Created with Sketch.</desc>
    <defs>
        <path d="M9.71188832e-05,92.148503 C0.114697403,43.3307496 34.1325292,0.509461735 85.1228574,0.48325086 C136.113671,0.457039986 170.041182,43.4006452 170.252902,92.1431637 C170.393724,124.661151 155.087788,154.155665 127.672098,172.178554 C116.744281,179.362275 106.052948,173.02798 101.992893,161.287936 C98.6675427,151.670001 97.2525206,130.969235 85.1150879,130.973118 C72.9781409,130.977001 71.5767153,151.667089 68.2217435,161.28114 C64.1267257,173.017302 53.5742732,179.38072 42.6066376,172.18632 C15.0918863,154.136735 -0.0761412058,124.71697 9.71188832e-05,92.148503 Z M85.2218216,124.652787 C91.1985848,124.652787 96.0436402,118.835914 96.0436402,111.660337 C96.0436402,104.484759 91.1985848,98.6678867 85.2218216,98.6678867 C79.2450583,98.6678867 74.400003,104.484759 74.400003,111.660337 C74.400003,118.835914 79.2450583,124.652787 85.2218216,124.652787 Z" id="path-1"></path>
        <filter x="-46.1%" y="-32.3%" width="192.2%" height="189.8%" filterUnits="objectBoundingBox" id="filter-2">
            <feOffset dx="0" dy="22" in="SourceAlpha" result="shadowOffsetOuter1"></feOffset>
            <feGaussianBlur stdDeviation="22.5" in="shadowOffsetOuter1" result="shadowBlurOuter1"></feGaussianBlur>
            <feColorMatrix values="0 0 0 0 0   0 0 0 0 0   0 0 0 0 0  0 0 0 0.102764 0" type="matrix" in="shadowBlurOuter1"></feColorMatrix>
        </filter>
    </defs>
    <g id="z-" stroke="none" stroke-width="1" fill="none" fill-rule="evenodd">
        <g id="Сourse-buyed" transform="translate(-907.000000, -941.000000)">
            <g id="Group-31" transform="translate(250.000000, 932.000000)">
                <g id="Group-27" transform="translate(656.000000, 0.000000)">
                    <g id="Rectangle-Copy-3-+-Oval-+-Rectangle-Copy-4-Mask" transform="translate(119.939470, 119.927210) rotate(-30.000000) translate(-119.939470, -119.927210) translate(33.439470, 31.427210)">
                        <g id="Group-18">
                            <g transform="translate(86.104447, 88.244961) rotate(-360.000000) translate(-86.104447, -88.244961) translate(0.104447, 0.244961)">
                                <g id="Group-3" transform="translate(0.000000, 0.002427)">
                                    <g id="Combined-Shape">
                                        <use fill="black" fill-opacity="1" filter="url(#filter-2)" xlink:href="#path-1"></use>
                                        <use fill="#FFFFFF" fill-rule="evenodd" xlink:href="#path-1"></use>
                                    </g>
                                </g>
                                <path d="M101.838426,28.9968961 C101.838426,38.2226385 94.3563869,45.7014746 85.1266936,45.7014746 C75.8970004,45.7014746 68.4149615,38.2226385 68.4149615,28.9968961 C68.4149615,19.7711537 75.8970004,12.2918322 85.1266936,12.2918322 C94.3563869,12.2918322 101.838426,19.7711537 101.838426,28.9968961" id="Fill-4" fill="#E8E8E8"></path>
                                <path d="M62.9197322,45.7015231 C62.9197322,54.9272655 55.4376933,62.4061017 46.208,62.4061017 C36.9783068,62.4061017 29.4962679,54.9272655 29.4962679,45.7015231 C29.4962679,36.4757808 36.9783068,28.9969446 46.208,28.9969446 C55.4376933,28.9969446 62.9197322,36.4757808 62.9197322,45.7015231" id="Fill-6" fill="#E8E8E8"></path>
                                <path d="M46.208,84.1987448 C46.208,93.4244872 38.7259611,100.903323 29.4962679,100.903323 C20.2665747,100.903323 12.7845358,93.4244872 12.7845358,84.1987448 C12.7845358,74.9730024 20.2665747,67.4936809 29.4962679,67.4936809 C38.7259611,67.4936809 46.208,74.9730024 46.208,84.1987448" id="Fill-8" fill="#E8E8E8"></path>
                                <path d="M55.1891175,124.90865 C55.1891175,134.134392 47.7070786,141.613228 38.4773854,141.613228 C29.2476921,141.613228 21.7656532,134.134392 21.7656532,124.90865 C21.7656532,115.682907 29.2476921,108.204071 38.4773854,108.204071 C47.7070786,108.204071 55.1891175,115.682907 55.1891175,124.90865" id="Fill-10" fill="#E8E8E8"></path>
                                <path d="M107.921176,45.7015231 C107.921176,54.9272655 115.403215,62.4061017 124.632908,62.4061017 C133.863087,62.4061017 141.345126,54.9272655 141.345126,45.7015231 C141.345126,36.4757808 133.863087,28.9969446 124.632908,28.9969446 C115.403215,28.9969446 107.921176,36.4757808 107.921176,45.7015231" id="Fill-12" fill="#E8E8E8"></path>
                                <path d="M124.632908,84.1987448 C124.632908,93.4244872 132.114947,100.903323 141.345126,100.903323 C150.574819,100.903323 158.056858,93.4244872 158.056858,84.1987448 C158.056858,74.9730024 150.574819,67.4936809 141.345126,67.4936809 C132.114947,67.4936809 124.632908,74.9730024 124.632908,84.1987448" id="Fill-14" fill="#E8E8E8"></path>
                                <path d="M115.65179,124.90865 C115.65179,134.134392 123.133829,141.613228 132.363523,141.613228 C141.593701,141.613228 149.07574,134.134392 149.07574,124.90865 C149.07574,115.682907 141.593701,108.204071 132.363523,108.204071 C123.133829,108.204071 115.65179,115.682907 115.65179,124.90865" id="Fill-16" fill="#E8E8E8"></path>
                            </g>
                        </g>
                    </g>
                </g>
            </g>
        </g>
    </g>
</svg>