<?xml version="1.0" standalone="no"?>
<!DOCTYPE svg PUBLIC "-//W3C//DTD SVG 20010904//EN"
 "http://www.w3.org/TR/2001/REC-SVG-20010904/DTD/svg10.dtd">
<svg version="1.0" xmlns="http://www.w3.org/2000/svg"
 width="3780.000000pt" height="3780.000000pt" viewBox="0 0 3780.000000 3780.000000"
 preserveAspectRatio="xMidYMid meet">
<metadata>
Created by potrace 1.11, written by Peter Selinger 2001-2013
</metadata>
<g transform="translate(0.000000,3780.000000) scale(0.100000,-0.100000)"
fill="#000000" stroke="none">
<path d="M18919 35016 c-2 -2 -44 -7 -94 -10 -49 -3 -101 -8 -115 -10 -14 -3
-49 -7 -79 -10 -29 -3 -81 -10 -115 -16 -800 -137 -1490 -491 -2046 -1049
-323 -323 -532 -623 -762 -1091 -334 -679 -509 -1039 -506 -1042 2 -2 -7 -17
-20 -35 -12 -17 -22 -33 -22 -36 0 -5 -34 -77 -233 -487 -117 -243 -199 -414
-232 -485 -18 -38 -62 -132 -99 -208 -36 -76 -66 -140 -66 -142 0 -1 -29 -63
-64 -136 -35 -74 -74 -156 -86 -184 -12 -27 -46 -102 -75 -165 -94 -204 -157
-343 -196 -432 -21 -48 -52 -116 -68 -150 -16 -35 -54 -121 -86 -193 -31 -71
-66 -148 -76 -170 -10 -22 -61 -139 -114 -260 -100 -228 -137 -311 -162 -357
-8 -16 -11 -28 -7 -28 3 0 2 -6 -4 -12 -5 -7 -42 -85 -82 -173 -135 -299 -266
-570 -347 -714 -29 -51 -53 -95 -53 -98 0 -2 -4 -9 -10 -16 -5 -7 -31 -44 -57
-84 -110 -164 -143 -185 -413 -253 -96 -24 -104 -26 -151 -34 -19 -3 -45 -8
-59 -10 -54 -10 -268 -45 -320 -52 -30 -4 -62 -8 -70 -9 -8 -1 -42 -5 -75 -9
-33 -4 -71 -9 -85 -11 -14 -3 -50 -7 -80 -10 -30 -3 -66 -7 -80 -10 -14 -2
-54 -7 -90 -10 -36 -3 -76 -8 -90 -10 -14 -3 -54 -7 -90 -10 -36 -3 -81 -8
-100 -11 -42 -6 -90 -10 -190 -19 -41 -3 -82 -8 -90 -10 -8 -2 -49 -6 -90 -10
-41 -3 -86 -8 -100 -10 -14 -2 -54 -7 -90 -10 -36 -3 -81 -8 -100 -10 -19 -2
-60 -7 -90 -10 -30 -3 -71 -8 -90 -10 -36 -4 -102 -11 -192 -20 -29 -3 -69 -8
-88 -10 -87 -11 -190 -23 -270 -30 -30 -3 -66 -7 -80 -10 -14 -2 -54 -7 -90
-11 -36 -3 -72 -7 -80 -9 -8 -1 -49 -6 -90 -10 -41 -4 -82 -9 -90 -10 -24 -4
-118 -16 -250 -31 -66 -7 -122 -14 -150 -19 -14 -2 -52 -7 -85 -10 -64 -6
-134 -14 -175 -20 -14 -2 -50 -6 -80 -10 -30 -4 -66 -8 -80 -10 -14 -2 -52 -7
-85 -11 -33 -3 -67 -8 -76 -9 -9 -2 -40 -6 -70 -10 -66 -8 -351 -43 -399 -50
-64 -8 -194 -24 -245 -30 -27 -4 -63 -9 -80 -11 -16 -3 -50 -7 -75 -10 -25 -2
-61 -7 -80 -10 -19 -3 -46 -7 -60 -9 -37 -3 -129 -15 -175 -21 -72 -10 -89
-12 -145 -19 -30 -4 -63 -9 -72 -10 -9 -2 -48 -7 -85 -10 -37 -4 -70 -9 -73
-10 -3 -2 -34 -6 -70 -10 -36 -4 -74 -9 -85 -11 -11 -2 -45 -6 -75 -9 -30 -3
-64 -7 -75 -10 -11 -2 -47 -7 -80 -10 -53 -6 -167 -24 -260 -41 -385 -71 -821
-235 -1175 -441 -404 -236 -816 -599 -1076 -949 -32 -43 -61 -81 -64 -84 -14
-12 -151 -222 -190 -290 -24 -41 -50 -83 -58 -92 -8 -10 -12 -18 -7 -18 4 0 3
-6 -3 -12 -39 -49 -173 -341 -241 -525 -99 -271 -189 -642 -207 -858 -3 -27
-7 -61 -9 -75 -22 -115 -22 -642 -1 -755 2 -11 7 -51 10 -90 4 -38 9 -77 11
-85 2 -8 7 -35 10 -60 4 -25 11 -65 17 -90 5 -25 12 -58 15 -75 8 -56 63 -259
99 -370 155 -473 373 -860 730 -1295 30 -37 459 -464 642 -640 112 -107 237
-226 277 -265 40 -38 144 -138 231 -222 88 -84 198 -190 245 -235 48 -46 160
-153 250 -238 90 -85 199 -189 244 -231 44 -42 96 -91 115 -109 19 -18 96 -90
170 -160 74 -70 149 -141 166 -156 17 -16 82 -76 144 -134 62 -58 125 -116
140 -130 61 -57 234 -216 244 -225 10 -9 134 -122 286 -261 50 -46 80 -73 136
-123 22 -19 86 -78 144 -130 155 -139 317 -285 463 -415 43 -38 88 -78 100
-90 13 -12 66 -59 117 -106 415 -375 706 -682 777 -820 27 -53 28 -60 28 -205
0 -135 -9 -276 -20 -330 -3 -11 -7 -38 -10 -60 -3 -22 -7 -53 -10 -70 -3 -16
-7 -46 -9 -65 -12 -80 -49 -284 -91 -492 -25 -123 -47 -233 -49 -245 -3 -13
-12 -58 -20 -100 -9 -43 -18 -87 -20 -98 -3 -11 -9 -42 -16 -70 -10 -46 -85
-397 -96 -455 -3 -14 -16 -76 -30 -138 -13 -63 -26 -126 -29 -141 -2 -15 -25
-124 -49 -242 -25 -119 -48 -229 -50 -245 -3 -16 -8 -40 -11 -54 -3 -14 -8
-36 -11 -50 -3 -14 -16 -81 -30 -150 -14 -69 -28 -136 -30 -150 -3 -14 -34
-172 -69 -351 -35 -179 -67 -341 -70 -360 -3 -19 -19 -101 -35 -184 -16 -82
-32 -166 -35 -185 -3 -19 -8 -42 -10 -50 -2 -8 -6 -27 -9 -43 -8 -45 -46 -245
-68 -357 -11 -58 -21 -114 -23 -125 -3 -22 -26 -149 -40 -215 -3 -14 -8 -43
-11 -65 -3 -22 -8 -43 -10 -46 -1 -3 -8 -34 -14 -70 -12 -78 -7 -51 -86 -464
-36 -187 -74 -380 -84 -430 -11 -49 -23 -110 -26 -135 -3 -25 -8 -47 -9 -50
-2 -3 -6 -41 -10 -85 -4 -44 -9 -83 -10 -86 -9 -14 -20 -250 -19 -409 1 -164
10 -352 19 -402 3 -12 7 -40 10 -63 11 -82 27 -190 30 -205 2 -8 13 -58 24
-110 30 -140 109 -412 141 -485 4 -11 20 -51 35 -90 147 -384 407 -804 699
-1129 479 -535 1098 -928 1771 -1127 147 -43 401 -99 520 -114 28 -3 61 -8 75
-10 23 -3 99 -11 210 -21 53 -5 429 -5 480 0 19 2 76 7 125 10 50 4 97 9 105
11 8 3 33 7 55 9 62 8 118 17 135 21 8 3 33 7 55 11 22 3 43 8 46 10 4 2 24 6
45 10 54 8 267 68 394 110 215 72 462 185 765 349 33 18 101 54 150 80 92 49
179 95 308 164 39 21 117 62 172 91 55 29 118 63 140 75 22 12 92 50 155 83
63 33 196 104 295 157 99 53 221 118 270 145 50 26 106 56 125 67 20 11 71 39
115 63 125 67 778 426 900 495 61 34 130 73 155 87 55 31 64 36 325 185 277
158 452 259 610 352 72 43 137 80 145 84 8 4 29 15 45 26 378 231 1082 618
1275 700 41 18 84 36 95 41 106 46 207 68 270 58 54 -8 204 -55 220 -69 5 -5
14 -9 21 -9 27 0 376 -170 579 -281 66 -36 149 -82 185 -101 36 -19 141 -79
233 -132 92 -53 170 -96 173 -96 2 0 21 -11 42 -23 35 -23 247 -146 342 -199
25 -14 104 -59 175 -100 72 -41 150 -86 175 -100 25 -14 108 -61 185 -105 133
-76 170 -97 283 -159 26 -15 52 -30 57 -34 6 -4 35 -21 65 -37 66 -35 289
-160 310 -173 8 -5 33 -19 54 -30 22 -12 159 -88 305 -169 274 -152 357 -198
426 -236 22 -12 110 -60 195 -107 85 -47 187 -102 225 -123 39 -21 84 -45 100
-55 17 -10 62 -34 100 -55 67 -36 220 -120 315 -173 25 -13 74 -40 110 -60 36
-19 112 -60 170 -92 58 -32 137 -75 175 -95 114 -62 214 -119 310 -175 285
-166 689 -331 970 -395 211 -49 300 -65 490 -90 194 -25 624 -26 825 0 133 16
184 24 300 47 507 97 994 300 1424 592 142 97 158 108 172 121 6 5 26 21 44
35 126 93 333 286 475 441 257 281 494 643 645 984 12 28 28 64 36 80 80 175
194 561 229 777 3 18 7 44 10 58 8 43 14 83 20 140 3 30 7 69 9 85 22 170 23
557 1 750 -2 17 -6 54 -9 84 -9 81 -31 215 -69 431 -20 107 -39 215 -43 240
-4 25 -8 47 -9 50 0 3 -4 27 -9 53 -4 27 -9 59 -12 70 -2 12 -7 37 -10 56 -3
18 -8 43 -10 55 -6 32 -23 127 -29 166 -5 31 -17 96 -20 110 -1 3 -5 28 -10
55 -4 28 -9 59 -12 70 -7 34 -32 173 -47 265 -4 19 -11 58 -16 85 -5 28 -12
64 -15 80 -22 128 -46 259 -55 305 -6 30 -13 71 -16 90 -2 19 -11 67 -19 107
-8 39 -18 88 -21 109 -3 20 -8 46 -10 58 -3 11 -7 35 -10 51 -2 17 -9 50 -14
75 -5 25 -12 61 -15 80 -3 19 -8 42 -10 50 -2 8 -7 31 -10 50 -3 19 -8 46 -10
60 -3 14 -7 34 -9 45 -26 137 -37 194 -41 215 -3 14 -8 39 -11 55 -3 17 -9 48
-14 70 -5 22 -11 56 -14 75 -7 48 -82 420 -111 555 -13 61 -26 124 -29 140 -3
17 -7 41 -10 55 -12 53 -17 77 -26 120 -5 25 -12 56 -15 70 -3 14 -7 36 -10
50 -3 14 -7 36 -10 50 -3 14 -8 38 -11 54 -2 16 -7 33 -9 36 -3 4 -7 25 -11
46 -5 35 -30 156 -54 259 -5 22 -23 108 -40 190 -17 83 -40 193 -52 245 -11
52 -22 104 -24 115 -2 11 -17 85 -34 164 -17 80 -33 156 -35 170 -2 14 -13 76
-24 136 -29 153 -27 145 -50 295 -33 217 -39 287 -37 425 1 120 3 134 28 182
101 191 451 549 1144 1169 16 14 45 40 64 58 19 17 105 95 190 171 242 219
227 204 380 345 51 47 102 93 114 103 12 10 62 56 111 101 50 46 104 96 120
110 47 43 212 194 294 271 42 39 102 95 135 125 33 30 70 64 81 75 12 11 73
67 135 125 63 58 128 119 145 135 18 17 61 57 97 90 35 33 120 112 189 176 68
64 142 134 164 154 22 21 72 67 110 104 248 233 354 333 380 357 17 15 95 88
173 163 217 205 228 215 387 366 333 313 481 471 632 675 68 92 213 307 213
316 0 2 17 32 38 67 55 92 165 319 218 448 75 189 167 492 194 644 5 28 11 59
13 70 6 25 34 214 41 273 25 203 26 703 2 828 -2 11 -7 45 -10 75 -3 30 -8 65
-11 79 -2 13 -7 40 -10 60 -3 20 -7 47 -10 60 -3 14 -8 41 -11 60 -22 121 -79
336 -129 485 -31 89 -56 161 -65 180 -5 11 -28 65 -51 120 -80 186 -169 352
-319 590 -152 242 -423 548 -696 785 -88 77 -304 234 -434 315 -150 94 -480
265 -513 265 -7 0 -17 4 -22 9 -37 33 -469 171 -650 206 -22 5 -44 9 -50 10
-38 9 -126 25 -155 29 -19 3 -46 8 -60 11 -22 4 -196 28 -300 41 -19 2 -46 6
-60 9 -14 3 -47 7 -75 10 -27 3 -61 8 -75 10 -34 6 -76 13 -130 20 -25 3 -56
8 -70 10 -14 2 -50 7 -80 10 -30 3 -62 8 -70 10 -8 2 -37 6 -65 10 -27 3 -61
7 -75 10 -14 2 -47 7 -75 10 -27 3 -57 8 -65 10 -8 2 -42 6 -75 10 -33 3 -85
10 -115 15 -30 5 -82 12 -115 15 -33 4 -67 8 -75 10 -8 2 -37 7 -65 10 -27 4
-61 8 -75 10 -14 3 -45 7 -70 10 -58 7 -68 8 -300 40 -247 33 -245 33 -305 40
-27 4 -61 8 -75 10 -14 2 -117 15 -230 29 -113 14 -223 28 -245 31 -22 3 -94
12 -160 20 -66 8 -138 17 -160 20 -22 3 -62 8 -90 11 -27 3 -61 7 -75 9 -14 2
-54 6 -90 10 -36 3 -74 8 -85 10 -11 2 -40 6 -65 9 -25 3 -67 8 -95 11 -61 8
-112 13 -185 20 -30 3 -71 7 -90 10 -19 2 -60 7 -90 10 -30 3 -71 8 -90 10
-19 3 -60 7 -90 10 -30 3 -73 8 -95 10 -53 6 -139 15 -195 20 -25 3 -65 7 -90
10 -74 8 -221 24 -285 30 -33 3 -74 8 -91 10 -17 2 -57 7 -90 10 -32 3 -75 8
-94 10 -19 3 -57 7 -85 10 -27 3 -66 8 -85 10 -19 3 -53 7 -75 9 -45 6 -194
26 -240 32 -16 2 -48 7 -70 9 -22 3 -49 7 -60 9 -11 2 -65 11 -120 21 -126 21
-301 60 -340 75 -16 6 -32 11 -35 11 -10 -2 -76 22 -111 40 -104 52 -232 244
-428 639 -101 202 -289 611 -406 880 -37 85 -78 178 -90 205 -13 28 -41 91
-63 140 -22 50 -50 113 -62 140 -12 28 -28 64 -35 80 -7 17 -24 55 -38 85 -14
30 -70 156 -125 280 -55 124 -112 252 -127 285 -15 33 -48 105 -72 160 -25 55
-58 127 -73 160 -34 73 -76 164 -145 315 -56 123 -104 226 -165 355 -21 44
-54 116 -75 160 -39 82 -86 183 -154 328 -21 45 -64 136 -96 202 -32 66 -74
156 -95 200 -21 44 -63 134 -95 200 -32 66 -74 156 -95 200 -21 44 -71 150
-113 235 -41 85 -88 184 -105 220 -111 238 -238 493 -293 586 -66 114 -194
310 -248 379 -17 22 -34 45 -38 50 -146 191 -359 413 -544 567 -145 120 -209
168 -344 258 -33 22 -67 45 -75 51 -100 69 -454 247 -620 312 -192 75 -451
153 -604 183 -41 8 -131 24 -161 29 -16 3 -45 7 -63 10 -17 3 -47 8 -65 10
-17 2 -57 7 -87 10 -30 4 -73 9 -95 12 -49 5 -541 13 -546 9z"/>
</g>
</svg>
