<svg width="66" height="46" viewBox="0 0 66 46" fill="none" xmlns="http://www.w3.org/2000/svg">
<path fill-rule="evenodd" clip-rule="evenodd" d="M19.2223 16.4496C18.6949 17.0913 17.8511 17.5975 17.0073 17.5252C16.9018 16.6575 17.3149 15.7355 17.7984 15.166C18.3258 14.5062 19.2487 14.0362 19.9959 14C20.0838 14.9039 19.741 15.7897 19.2223 16.4496ZM19.9871 17.697C19.2437 17.653 18.5653 17.9269 18.0174 18.1481C17.6648 18.2905 17.3663 18.411 17.1391 18.411C16.8842 18.411 16.5733 18.284 16.2242 18.1414C15.7668 17.9546 15.2439 17.7409 14.6955 17.7512C13.4385 17.7693 12.2694 18.5014 11.6277 19.6675C10.3092 21.9995 11.2849 25.4524 12.5595 27.3506C13.1836 28.2907 13.9307 29.3211 14.9152 29.285C15.3483 29.2682 15.6599 29.1322 15.9823 28.9915C16.3535 28.8295 16.7392 28.6613 17.3413 28.6613C17.9225 28.6613 18.2913 28.8252 18.6453 28.9825C18.9818 29.1321 19.3051 29.2757 19.7849 29.2669C20.8046 29.2488 21.4462 28.3268 22.0703 27.3868C22.7438 26.3778 23.0398 25.3932 23.0847 25.2437L23.09 25.2265C23.0889 25.2253 23.0806 25.2214 23.0659 25.2145C22.8408 25.1085 21.1199 24.2984 21.1034 22.1261C21.0869 20.3027 22.4683 19.3789 22.6858 19.2334L22.6859 19.2334C22.6991 19.2246 22.708 19.2186 22.712 19.2155C21.833 17.8777 20.4617 17.7331 19.9871 17.697ZM27.0455 29.1675V15.0756H32.1877C34.8423 15.0756 36.697 16.9558 36.697 19.7036C36.697 22.4515 34.8071 24.3497 32.1174 24.3497H29.1727V29.1675H27.0455ZM29.1727 16.9196H31.6251C33.4711 16.9196 34.5259 17.932 34.5259 19.7127C34.5259 21.4933 33.4711 22.5147 31.6163 22.5147H29.1727V16.9196ZM43.7203 27.4772C43.1577 28.5799 41.9183 29.2759 40.5822 29.2759C38.6045 29.2759 37.2244 28.0647 37.2244 26.2388C37.2244 24.431 38.5605 23.3915 41.0305 23.2379L43.6851 23.0752V22.2978C43.6851 21.1499 42.9555 20.5262 41.6546 20.5262C40.5822 20.5262 39.7999 21.0956 39.6417 21.9634H37.7254C37.787 20.1375 39.4571 18.8088 41.7161 18.8088C44.151 18.8088 45.7332 20.1194 45.7332 22.1532V29.1675H43.7642V27.4772H43.7203ZM41.1536 27.6037C40.0197 27.6037 39.2989 27.0433 39.2989 26.1846C39.2989 25.2988 39.9933 24.7835 41.3206 24.7022L43.6851 24.5485V25.344C43.6851 26.6637 42.5951 27.6037 41.1536 27.6037ZM52.2642 29.7188C51.4116 32.1865 50.4359 33 48.3614 33C48.2032 33 47.6758 32.9819 47.5527 32.9458V31.2555C47.6846 31.2736 48.0098 31.2916 48.1768 31.2916C49.1174 31.2916 49.6448 30.8849 49.97 29.8273L50.1634 29.2036L46.5595 18.9443H48.7834L51.2885 27.2693H51.3325L53.8376 18.9443H56L52.2642 29.7188Z" fill="black"/>
</svg>
