<svg width="188" height="105" viewBox="0 0 188 105" fill="none" xmlns="http://www.w3.org/2000/svg">
<path d="M76.1514 44.3701L76.4727 39.2432H80.2461V46.8926H75.4609V46.8379C75.9463 46.25 76.083 45.498 76.1514 44.3701ZM74.3467 48H81.5654V49.9482H82.707V46.8926H81.4766V38.1357H75.3721L74.9961 44.3428C74.9209 45.6348 74.6543 46.5098 73.9365 46.8926H73.2051V49.9482H74.3467V48ZM86.9043 48.123C88.8662 48.123 90.1924 46.708 90.1924 44.4453C90.1924 42.1758 88.8662 40.7676 86.9043 40.7676C84.9355 40.7676 83.6094 42.1758 83.6094 44.4453C83.6094 46.708 84.9355 48.123 86.9043 48.123ZM86.9043 47.0771C85.6465 47.0771 84.8193 46.1201 84.8193 44.4453C84.8193 42.7705 85.6465 41.8135 86.9043 41.8135C88.1621 41.8135 88.9824 42.7705 88.9824 44.4453C88.9824 46.1201 88.1621 47.0771 86.9043 47.0771ZM94.5605 48.123C96.6182 48.123 97.8828 46.749 97.8828 44.5137C97.8828 42.3945 96.6592 41.041 94.7383 41.041C93.6445 41.041 92.7559 41.4785 92.291 42.3193H92.2363C92.5234 40.1934 93.1113 39.3252 95.0869 39.25L95.6133 39.2295C96.4336 39.1953 97.1855 39.0176 97.4111 38.8125V37.7734C97.0078 37.9854 96.2422 38.1221 95.5586 38.1562L95.0322 38.1768C92.2705 38.2793 91.2314 39.9131 91.2314 43.8369C91.2314 46.6602 92.3799 48.123 94.5605 48.123ZM94.5605 47.0703C93.2207 47.0703 92.4482 46.1475 92.4482 44.5137C92.4482 42.9619 93.2207 42.0801 94.5605 42.0801C95.8936 42.0801 96.666 42.9619 96.666 44.5137C96.666 46.1475 95.8936 47.0703 94.5605 47.0703ZM101.561 47.1113C100.706 47.1113 100.139 46.667 100.139 45.9902C100.139 45.3203 100.686 44.8965 101.643 44.835L103.543 44.7188V45.2998C103.543 46.3252 102.682 47.1113 101.561 47.1113ZM101.294 48.123C102.251 48.123 103.153 47.5898 103.577 46.7764H103.604V48H104.732V43.085C104.732 41.6699 103.68 40.7676 102.012 40.7676C100.33 40.7676 99.2773 41.7109 99.1953 42.9414H100.344C100.494 42.2441 101.068 41.8135 101.984 41.8135C102.969 41.8135 103.543 42.333 103.543 43.2012V43.7959L101.506 43.9121C99.8652 44.0078 98.9287 44.7734 98.9287 45.9902C98.9287 47.2686 99.8789 48.123 101.294 48.123ZM109.251 41.8545C109.996 41.8545 110.399 42.2031 110.399 42.832C110.399 43.5156 109.969 43.8438 109.073 43.8438H107.549V41.8545H109.251ZM109.169 44.8008C110.208 44.8008 110.707 45.1699 110.707 45.9287C110.707 46.6465 110.242 47.0361 109.381 47.0361H107.549V44.8008H109.169ZM106.373 48H109.436C110.946 48 111.876 47.2139 111.876 45.9561C111.876 45.0674 111.288 44.418 110.393 44.2949V44.2402C111.049 44.1035 111.562 43.4336 111.562 42.709C111.562 41.5811 110.748 40.8906 109.415 40.8906H106.373V48ZM114.412 48L117.967 42.709H118.021V48H119.197V40.8906H118.021L114.467 46.1816H114.412V40.8906H113.236V48H114.412ZM126.067 40.8906H120.298V41.8682H122.595V48H123.771V41.8682H126.067V40.8906ZM129.67 44.1377C130.586 44.1377 131.188 44.7051 131.188 45.5801C131.188 46.4482 130.593 47.0225 129.67 47.0225H128.344V44.1377H129.67ZM127.168 48H129.69C131.317 48 132.363 47.0635 132.363 45.5801C132.363 44.0967 131.317 43.1602 129.69 43.1602H128.344V40.8906H127.168V48ZM139.992 40.7676C138.96 40.7676 138.133 41.2939 137.695 42.0938H137.668V40.8906H136.54V50.3721H137.729V46.8447H137.757C138.181 47.624 139.001 48.123 140.02 48.123C141.811 48.123 143.034 46.6738 143.034 44.4453C143.034 42.2168 141.804 40.7676 139.992 40.7676ZM139.76 47.0771C138.543 47.0771 137.723 46.0312 137.723 44.4453C137.723 42.8662 138.543 41.8135 139.76 41.8135C141.024 41.8135 141.817 42.8389 141.817 44.4453C141.817 46.0586 141.024 47.0771 139.76 47.0771ZM147.211 41.7998C148.332 41.7998 149.077 42.6475 149.104 43.8369H145.242C145.317 42.6543 146.097 41.7998 147.211 41.7998ZM149.077 45.9629C148.879 46.6328 148.216 47.0908 147.313 47.0908C146.035 47.0908 145.235 46.1953 145.235 44.835V44.7666H150.335V44.3154C150.335 42.1621 149.152 40.7676 147.231 40.7676C145.27 40.7676 144.012 42.2646 144.012 44.4727C144.012 46.708 145.249 48.123 147.286 48.123C148.838 48.123 150.041 47.207 150.246 45.9629H149.077ZM154.703 48.123C156.761 48.123 158.025 46.749 158.025 44.5137C158.025 42.3945 156.802 41.041 154.881 41.041C153.787 41.041 152.898 41.4785 152.434 42.3193H152.379C152.666 40.1934 153.254 39.3252 155.229 39.25L155.756 39.2295C156.576 39.1953 157.328 39.0176 157.554 38.8125V37.7734C157.15 37.9854 156.385 38.1221 155.701 38.1562L155.175 38.1768C152.413 38.2793 151.374 39.9131 151.374 43.8369C151.374 46.6602 152.522 48.123 154.703 48.123ZM154.703 47.0703C153.363 47.0703 152.591 46.1475 152.591 44.5137C152.591 42.9619 153.363 42.0801 154.703 42.0801C156.036 42.0801 156.809 42.9619 156.809 44.5137C156.809 46.1475 156.036 47.0703 154.703 47.0703ZM162.209 41.7998C163.33 41.7998 164.075 42.6475 164.103 43.8369H160.24C160.315 42.6543 161.095 41.7998 162.209 41.7998ZM164.075 45.9629C163.877 46.6328 163.214 47.0908 162.312 47.0908C161.033 47.0908 160.233 46.1953 160.233 44.835V44.7666H165.333V44.3154C165.333 42.1621 164.15 40.7676 162.229 40.7676C160.268 40.7676 159.01 42.2646 159.01 44.4727C159.01 46.708 160.247 48.123 162.284 48.123C163.836 48.123 165.039 47.207 165.244 45.9629H164.075ZM171.335 48H172.511V40.8906H171.335V43.8232H167.828V40.8906H166.652V48H167.828V44.8008H171.335V48ZM176.599 44.2539L179.921 40.8906H178.451L175.416 44.0352H175.361V40.8906H174.186V48H175.361V44.582H175.416L178.485 48H180.017L176.599 44.2539ZM183.154 47.1113C182.3 47.1113 181.732 46.667 181.732 45.9902C181.732 45.3203 182.279 44.8965 183.236 44.835L185.137 44.7188V45.2998C185.137 46.3252 184.275 47.1113 183.154 47.1113ZM182.888 48.123C183.845 48.123 184.747 47.5898 185.171 46.7764H185.198V48H186.326V43.085C186.326 41.6699 185.273 40.7676 183.605 40.7676C181.924 40.7676 180.871 41.7109 180.789 42.9414H181.938C182.088 42.2441 182.662 41.8135 183.578 41.8135C184.562 41.8135 185.137 42.333 185.137 43.2012V43.7959L183.1 43.9121C181.459 44.0078 180.522 44.7734 180.522 45.9902C180.522 47.2686 181.473 48.123 182.888 48.123Z" fill="#C3C3C3"/>
<g filter="url(#filter0_d)">
<path fill-rule="evenodd" clip-rule="evenodd" d="M65 42.5C65 54.9264 54.9264 65 42.5 65C30.0736 65 20 54.9264 20 42.5C20 30.0736 30.0736 20 42.5 20C54.9264 20 65 30.0736 65 42.5ZM51.9025 42.003V43.997H43.997V51.9025H42.003V43.997H34.0975V42.003H42.003V34.0975H43.997V42.003H51.9025Z" fill="white"/>
</g>
<defs>
<filter id="filter0_d" x="0" y="0" width="105" height="105" filterUnits="userSpaceOnUse" color-interpolation-filters="sRGB">
<feFlood flood-opacity="0" result="BackgroundImageFix"/>
<feColorMatrix in="SourceAlpha" type="matrix" values="0 0 0 0 0 0 0 0 0 0 0 0 0 0 0 0 0 0 127 0"/>
<feOffset dx="10" dy="10"/>
<feGaussianBlur stdDeviation="15"/>
<feColorMatrix type="matrix" values="0 0 0 0 0 0 0 0 0 0 0 0 0 0 0 0 0 0 0.098476 0"/>
<feBlend mode="normal" in2="BackgroundImageFix" result="effect1_dropShadow"/>
<feBlend mode="normal" in="SourceGraphic" in2="effect1_dropShadow" result="shape"/>
</filter>
</defs>
</svg>
