<svg width="59" height="59" viewBox="0 0 59 59" fill="none" xmlns="http://www.w3.org/2000/svg">
<path opacity="0.9" fill-rule="evenodd" clip-rule="evenodd" d="M59 29.5C59 45.7924 45.7924 59 29.5 59C13.2076 59 0 45.7924 0 29.5C0 13.2076 13.2076 0 29.5 0C45.7924 0 59 13.2076 59 29.5ZM38.4904 35.665C38.8114 35.812 39.1484 35.882 39.4804 35.882C40.3844 35.882 41.2494 35.364 41.6504 34.488C42.1974 33.29 41.6704 31.876 40.4724 31.328L31.8054 27.366V10.384C31.8054 9.068 30.7384 8 29.4204 8C28.1044 8 27.0364 9.068 27.0364 10.384V28.898C27.0364 29.831 27.5804 30.678 28.4294 31.066L38.4904 35.665Z" fill="white"/>
</svg>
