<svg width="45" height="38" viewBox="0 0 45 38" fill="none" xmlns="http://www.w3.org/2000/svg">
<path opacity="0.8" fill-rule="evenodd" clip-rule="evenodd" d="M22.5 14.5667C18.3356 14.5667 15 17.9468 15 22.1667C15 26.3866 18.3356 29.7667 22.5 29.7667C26.6644 29.7667 30 26.3866 30 22.1667C30 17.9468 26.6644 14.5667 22.5 14.5667ZM22.5 10.7667C28.6906 10.7667 33.75 15.8935 33.75 22.1667C33.75 28.4398 28.6906 33.5667 22.5 33.5667C16.3094 33.5667 11.25 28.4398 11.25 22.1667C11.25 15.8935 16.3094 10.7667 22.5 10.7667ZM16.25 0L13.125 6.33333H4.375C1.95125 6.33333 0 8.3106 0 10.7667V33.5667C0 36.0227 1.95125 38 4.375 38H40.625C43.0488 38 45 36.0227 45 33.5667V10.7667C45 8.3106 43.0488 6.33333 40.625 6.33333H31.875L28.75 0H16.25Z" fill="white"/>
</svg>
