<svg width="66" height="46" viewBox="0 0 66 46" fill="none" xmlns="http://www.w3.org/2000/svg">
<path fill-rule="evenodd" clip-rule="evenodd" d="M30.0221 29.744H26.4824L28.6964 16.4119H32.2359L30.0221 29.744Z" fill="#0742A6"/>
<path fill-rule="evenodd" clip-rule="evenodd" d="M42.8544 16.7378C42.1563 16.468 41.0489 16.1702 39.6796 16.1702C36.1841 16.1702 33.7225 17.9855 33.7074 20.5809C33.6784 22.4958 35.4698 23.5593 36.8097 24.1978C38.1791 24.8503 38.6446 25.2761 38.6446 25.8576C38.6307 26.7508 37.538 27.1625 36.5189 27.1625C35.1057 27.1625 34.3485 26.9502 33.1978 26.4533L32.7317 26.2403L32.2363 29.2331C33.0665 29.6014 34.5961 29.9283 36.1841 29.9426C39.8981 29.9426 42.3161 28.1554 42.3448 25.3896C42.3589 23.8719 41.413 22.709 39.3736 21.7587C38.1356 21.1487 37.3774 20.7374 37.3774 20.1132C37.3919 19.5458 38.0186 18.9646 39.4162 18.9646C40.5669 18.9362 41.4124 19.2055 42.0529 19.4751L42.3731 19.6167L42.8544 16.7378Z" fill="#0742A6"/>
<path fill-rule="evenodd" clip-rule="evenodd" d="M49.1899 16.4119H51.9278L54.7835 29.7438H51.5061C51.5061 29.7438 51.1853 28.212 51.0837 27.7439H46.539C46.4076 28.0983 45.7961 29.7438 45.7961 29.7438H42.082L47.3398 17.518C47.7041 16.6528 48.3456 16.4119 49.1899 16.4119ZM48.9717 21.2907C48.9717 21.2907 47.85 24.255 47.5585 25.0209H50.5007C50.3551 24.3543 49.6848 21.163 49.6848 21.163L49.4374 20.0143C49.3333 20.3101 49.1826 20.7168 49.081 20.9911C49.0121 21.1771 48.9658 21.3022 48.9717 21.2907Z" fill="#0742A6"/>
<path fill-rule="evenodd" clip-rule="evenodd" d="M23.5263 16.4119L20.0598 25.5031L19.681 23.6593C19.0401 21.5318 17.0301 19.2203 14.7871 18.0709L17.9623 29.7298H21.7055L27.2692 16.4119H23.5263V16.4119Z" fill="#0742A6"/>
<path fill-rule="evenodd" clip-rule="evenodd" d="M16.8412 16.4119H11.1462L11.0879 16.6812C15.5304 17.7876 18.4725 20.4544 19.6813 23.6599L18.4433 17.5326C18.2395 16.6811 17.6131 16.44 16.8412 16.4119Z" fill="#0742A6"/>
</svg>
