<svg width="132" height="42" viewBox="0 0 132 42" fill="none" xmlns="http://www.w3.org/2000/svg">
<path fill-rule="evenodd" clip-rule="evenodd" d="M40.4169 10.7559L39.6841 21.381C40.6152 21.2144 41.7361 20.9932 42.5282 20.6268C45.6793 19.1701 46.7386 15.3247 44.4839 12.6533C43.4991 11.4857 41.9017 10.9134 40.4169 10.7559ZM33.6679 11.6332C33.3572 11.7252 33.0505 11.8241 32.7479 11.9295C32.1177 12.1493 31.4973 12.3813 30.909 12.673C30.1175 13.0653 29.4079 12.8374 28.9138 11.9731L26.3438 7.24799C28.163 6.25639 30.0961 5.45269 32.1615 4.88015C34.4701 4.24018 37.2057 3.82692 39.5663 3.83458C43.4918 3.84555 47.1532 5.10458 49.7545 8.18738C51.2349 9.9419 52.1461 12.0656 52.4526 14.268C52.7576 16.4588 52.4609 18.7409 51.5286 20.825C50.4048 23.337 48.3862 25.5345 45.4202 26.9058C45.1964 27.0092 44.9693 27.1076 44.7394 27.2008L49.6067 36.7388C50.2347 37.8506 50.3525 38.905 49.0554 39.5574L46.3745 40.9429C45.2961 41.5709 44.4393 41.3782 43.914 40.2881L39.1408 30.7679L38.6863 36.2149C38.6047 38.1497 38.25 38.7894 36.4734 38.6527L33.6046 38.4881C32.1264 38.3983 31.9173 37.6737 32.0316 35.3567L33.6679 11.6332Z" fill="#E9503B"/>
<path fill-rule="evenodd" clip-rule="evenodd" d="M69.2472 30.7877L61.8777 31.7939C60.5863 31.9705 60.7015 32.501 60.4938 33.1353L59.7839 35.4229C59.4948 36.4158 59.1574 36.5609 57.8873 36.1672L52.8125 34.6052C55.4146 26.2206 57.9013 18.2076 60.4866 9.8772C60.8236 8.76032 61.1845 8.26333 62.2811 8.22799L65.9457 7.98125C67.0996 7.86052 67.6019 8.23477 68.0785 9.35046L77.9483 30.8207L72.7524 33.2202C72.0465 33.594 71.5513 33.5369 71.2311 32.7561L70.8025 31.8351C70.2856 30.7111 70.4667 30.6211 69.2472 30.7877ZM59.6975 21.5175L61.2885 22.5679C62.0855 23.1202 62.0051 23.0718 61.9156 24.0613L61.7469 25.8933L61.7485 25.8935C61.7334 26.065 61.7808 26.2424 61.8953 26.3886C62.1345 26.6944 62.5761 26.748 62.8816 26.5085L64.2466 25.4317C65.0785 24.7788 65.0516 24.7764 66.0517 25.2049L67.6332 25.8914C67.7998 25.974 67.9986 25.9907 68.1868 25.9218C68.5516 25.7883 68.7392 25.3837 68.6059 25.0185L68.0153 23.3958C67.6445 22.381 67.5768 22.4764 68.2782 21.6734L69.5147 20.2746L69.5131 20.2731C69.627 20.1427 69.6932 19.9702 69.6858 19.7833C69.6706 19.3955 69.3444 19.0933 68.9571 19.1086L67.1227 19.1689C66.1706 19.2036 66.2287 19.3081 65.7521 18.5083L64.7438 16.7944C64.6562 16.637 64.5087 16.5131 64.3219 16.46C63.9484 16.3536 63.5594 16.5707 63.4533 16.9448L62.9022 18.8857C62.6632 19.7252 62.6607 19.6352 61.7803 19.8361L59.9345 20.2485C59.7663 20.2868 59.6118 20.3866 59.5077 20.541C59.294 20.8585 59.3769 21.3011 59.6975 21.5175Z" fill="#B1C7A5"/>
<path fill-rule="evenodd" clip-rule="evenodd" d="M86.413 16.0672L91.5313 15.5414C93.0538 15.3289 93.7823 16.0453 93.8948 17.162L94.2408 20.5014C94.357 21.8634 93.5633 22.4384 92.5096 22.5418L87.0814 23.0993L88.4166 36.5229C88.6671 38.4653 87.8842 39.0532 86.5554 39.2239L83.8679 39.4715C82.2455 39.6764 81.5357 38.6548 81.4109 37.3216L79.0506 13.1205C78.9693 12.3033 78.9409 11.5402 78.9616 10.8305C79.0547 7.63391 80.0726 5.17452 81.7796 3.38818C83.5027 1.58511 85.8118 0.598896 88.4936 0.333531C89.1433 0.269467 89.8008 0.247578 90.4611 0.266931L93.5117 0.446963C94.766 0.531572 95.3383 1.56881 95.2003 2.73175L94.9623 5.52191C94.8108 6.88346 94.1572 7.45082 92.7447 7.39142L90.2788 7.33009C89.8747 7.31824 89.5027 7.3288 89.1668 7.36182C86.1511 7.66004 85.8038 9.75445 86.0689 12.4464L86.413 16.0672Z" fill="#F9B100"/>
<path fill-rule="evenodd" clip-rule="evenodd" d="M110.157 17.8538C109.796 23.5037 109.435 29.154 109.074 34.8039C109.023 36.9565 107.963 37.2352 106.533 37.151L104.187 37.0037C102.629 36.9245 102.008 35.7499 102.2 34.0851L103.295 16.9526L98.7052 16.3499C97.1372 16.119 96.8188 15.3229 97.0248 13.7472L97.3077 11.5754C97.5377 10.223 98.3213 9.30124 100.004 9.55589L115.794 11.6295C117.38 11.8567 117.828 12.6161 117.68 13.8657L117.284 16.9088C117.117 18.3575 116.447 18.6573 114.884 18.4745L110.157 17.8538Z" fill="#CB5499"/>
<path fill-rule="evenodd" clip-rule="evenodd" d="M128.105 20.7098L125.552 36.8195C125.382 38.0614 124.725 38.3675 123.829 38.2065L120.166 37.6135C118.991 37.4275 118.548 36.8646 118.731 35.7943L121.274 19.7544C121.556 17.8736 122.31 17.35 123.856 17.6272L126.493 18.0463C127.84 18.2688 128.493 18.6646 128.105 20.7098Z" fill="#932873"/>
<path fill-rule="evenodd" clip-rule="evenodd" d="M0.5625 6.03246C3.48382 5.45174 5.84824 5.57376 8.00181 7.01029C10.8727 8.92502 12.0211 11.6141 12.948 15.0784L17.359 8.83302C17.8436 8.06895 18.6338 7.4945 19.7132 8.36392L22.742 10.7576C23.4674 11.3559 23.6348 12.2963 23.0037 13.065L17.9293 20.2505L26.6208 30.0692C27.6784 31.2694 28.283 32.2626 26.6753 33.7281L24.9247 35.486C23.5975 36.9293 22.9835 36.5869 21.7193 35.1764L14.4104 26.9198C14.6891 30.1469 14.9205 33.3448 15.0958 35.4529C15.2653 37.491 14.4791 37.9768 13.1261 38.1125L10.5597 38.3363C8.86888 38.4644 8.29245 37.4392 8.15049 35.573C7.82998 31.3566 7.17805 23.6743 6.75014 19.5668C6.50317 17.1956 6.23542 15.5777 5.16292 14.1659C4.4759 13.2905 2.87602 13.2951 1.98244 13.3611L0.5625 6.03246Z" fill="#4EC0DD"/>
<path fill-rule="evenodd" clip-rule="evenodd" d="M98.4258 7.02892V5.54074H97.8496V5.20251H99.3936V5.54074H98.82V7.02892H98.4258ZM99.6433 7.02892V5.20251H100.234L100.583 6.4482L100.927 5.20251H101.519V7.02892H101.155L101.153 5.76445L100.77 7.02892H100.391L100.009 5.76445L100.008 7.02892H99.6433Z" fill="#3C3C3C"/>
<path fill-rule="evenodd" clip-rule="evenodd" d="M121.767 12.7378C122.069 14.0577 123.81 15.1609 126.494 15.1049C130.308 15.0256 132.629 11.635 131.244 9.83455C129.319 7.33309 121.009 9.42149 121.767 12.7378Z" fill="#932873"/>
</svg>
