<svg width="18" height="18" viewBox="0 0 18 18" fill="none" xmlns="http://www.w3.org/2000/svg">
<path fill-rule="evenodd" clip-rule="evenodd" d="M11.9006 1.99754C11.4551 0.829624 10.3244 0 9 0C7.67564 0 6.54503 0.829555 6.09944 1.99739C4.95858 1.4867 3.57255 1.69958 2.63609 2.63604C1.69963 3.57251 1.48675 4.95855 1.99746 6.09942C0.829586 6.54499 0 7.67561 0 9C0 10.3243 0.829438 11.4548 1.99715 11.9005C1.48636 13.0414 1.69922 14.4275 2.63572 15.364C3.57227 16.3005 4.95847 16.5133 6.09939 16.0025C6.54493 17.1704 7.67558 18 9 18C10.3244 18 11.455 17.1704 11.9006 16.0026C13.0414 16.5133 14.4275 16.3004 15.364 15.364C16.3004 14.4275 16.5133 13.0414 16.0026 11.9006C17.1704 11.455 18 10.3244 18 9C18 7.67573 17.1706 6.54519 16.0029 6.09954C16.5136 4.95865 16.3008 3.57254 15.3643 2.63604C14.4277 1.69949 13.0415 1.48666 11.9006 1.99754Z" fill="url(#paint0_linear)"/>
<path d="M5.89648 9.34813L8.1598 11.6646L12.7926 7.03171" stroke="white" stroke-width="5" stroke-linecap="round"/>
<defs>
<linearGradient id="paint0_linear" x1="0" y1="0" x2="0" y2="18" gradientUnits="userSpaceOnUse">
<stop stop-color="#BFD9FF"/>
<stop offset="1" stop-color="#9CA4FF"/>
</linearGradient>
</defs>
</svg>
