<svg width="66" height="46" viewBox="0 0 66 46" fill="none" xmlns="http://www.w3.org/2000/svg">
<g opacity="0.01">
<rect x="13" y="10" width="39.8152" height="25.9701" fill="white"/>
</g>
<rect x="27.6582" y="14.5247" width="10.503" height="16.9179" fill="#FF5F00"/>
<path fill-rule="evenodd" clip-rule="evenodd" d="M28.7391 22.9851C28.7365 19.6843 30.2729 16.5656 32.9058 14.5276C28.433 11.061 22.0099 11.5659 18.1504 15.6876C14.291 19.8093 14.291 26.1639 18.1504 30.2856C22.0099 34.4072 28.433 34.9122 32.9058 31.4455C30.2721 29.4069 28.7355 26.2869 28.7391 22.9851Z" fill="#EB001B"/>
<path fill-rule="evenodd" clip-rule="evenodd" d="M49.5366 29.3795V30.0825H49.4633V29.3795H49.3066V29.234H49.7033V29.3795H49.5366ZM50.3066 29.234V30.0825H50.2233V29.4401L50.0933 29.9916H50.0033L49.8733 29.4401V30.0825H49.7866V29.234H49.9066L50.0466 29.8401L50.1866 29.234H50.3066Z" fill="#F79E1B"/>
<path fill-rule="evenodd" clip-rule="evenodd" d="M50.5578 22.9851C50.5577 27.1043 48.1727 30.8618 44.4159 32.6618C40.659 34.4619 36.1898 33.9884 32.9062 31.4426C35.5379 29.4028 37.0745 26.2846 37.0745 22.9836C37.0745 19.6826 35.5379 16.5643 32.9062 14.5246C36.1898 11.9787 40.659 11.5053 44.4159 13.3053C48.1727 15.1054 50.5577 18.8629 50.5578 22.9821V22.9851Z" fill="#F79E1B"/>
</svg>
