<svg width="25" height="25" viewBox="0 0 25 25" xmlns="http://www.w3.org/2000/svg">
<path fill-rule="evenodd" clip-rule="evenodd" d="M12.5 8.48889C14.8068 8.48889 16.6801 10.3956 16.6801 12.7447C16.6801 15.0932 14.8068 17.0004 12.5 17.0004C10.1932 17.0004 8.31994 15.0932 8.31994 12.7447C8.31994 10.3956 10.1932 8.48889 12.5 8.48889ZM14.6285 0.18545C13.2201 -0.0618165 11.7799 -0.0618165 10.3715 0.18545C10.0085 1.09616 9.68863 2.0221 9.41241 2.96371C8.52817 3.25277 7.68754 3.66502 6.91404 4.18829C6.01868 3.82131 5.10835 3.49873 4.18263 3.21968C3.11452 4.18655 2.2166 5.33276 1.52861 6.60827C2.00152 7.465 2.51334 8.29691 3.06364 9.10401C2.73483 9.98816 2.52702 10.9141 2.44664 11.8562C1.60686 12.3402 0.791031 12.8635 0 13.4264C0.0765376 14.8795 0.396798 16.3087 0.947099 17.6521C1.89976 17.8097 2.85797 17.9211 3.82089 17.986C4.29466 18.7992 4.8766 19.5419 5.54962 20.1927C5.3974 21.1635 5.29093 22.1386 5.23021 23.1194C6.39367 23.9648 7.69096 24.6008 9.06564 25C9.78056 24.34 10.4634 23.647 11.1138 22.9204C12.0335 23.0506 12.9665 23.0506 13.8862 22.9204C14.5366 23.647 15.2194 24.34 15.9344 25C17.309 24.6008 18.6063 23.9648 19.7698 23.1194C19.7091 22.1386 19.6026 21.1635 19.4504 20.1927C20.1234 19.5419 20.7053 18.7992 21.1791 17.986C22.142 17.9211 23.1002 17.8097 24.0529 17.6521C24.6032 16.3087 24.9235 14.8795 25 13.4264C24.209 12.8635 23.3931 12.3402 22.5534 11.8562C22.473 10.9141 22.2652 9.98816 21.9364 9.10401C22.4867 8.29691 22.9985 7.465 23.4714 6.60827C22.7834 5.33276 21.8855 4.18655 20.8174 3.21968C19.8916 3.49873 18.9813 3.82131 18.086 4.18829C17.3125 3.66502 16.4718 3.25277 15.5876 2.96371C15.3114 2.0221 14.9915 1.09616 14.6285 0.18545Z" fill="#EAEAEA"/>
</svg>
