<svg width="31" height="25" viewBox="0 0 31 25" fill="none" xmlns="http://www.w3.org/2000/svg">
<path fill-rule="evenodd" clip-rule="evenodd" d="M0.594945 11.0452C-0.159287 11.3228 -0.208722 12.4404 0.517262 12.7921L5.08926 15.0091C5.42401 15.1724 5.80819 15.1849 6.15423 15.0454L18.0948 10.1941C18.2685 10.1229 18.3985 10.3685 18.2516 10.4899L10.7135 16.7546C10.6994 16.7671 10.6076 16.8467 10.6076 16.8467C10.2361 17.1536 10.0186 17.6266 10.0186 18.1275V24.4704C10.0186 24.9601 10.5892 25.1862 10.8901 24.8164L14.9254 19.746L19.0214 21.7608C19.5171 22.0036 20.1047 21.7971 20.366 21.2864L30.9563 0.550029C31.1089 0.251443 30.8363 -0.0890008 30.5354 0.0212248L0.594945 11.0452Z" fill="#FFB6B6"/>
</svg>
