<svg width="88" height="87" viewBox="0 0 88 87" fill="none" xmlns="http://www.w3.org/2000/svg">
<path fill-rule="evenodd" clip-rule="evenodd" d="M44 86.9647C68.3005 86.9647 88 67.497 88 43.4824C88 19.4677 68.3005 0 44 0C19.6995 0 0 19.4677 0 43.4824C0 67.497 19.6995 86.9647 44 86.9647Z" fill="#F3F3F3"/>
<mask id="mask0" mask-type="alpha" maskUnits="userSpaceOnUse" x="0" y="0" width="88" height="87">
<path fill-rule="evenodd" clip-rule="evenodd" d="M44 86.9647C68.3005 86.9647 88 67.497 88 43.4824C88 19.4677 68.3005 0 44 0C19.6995 0 0 19.4677 0 43.4824C0 67.497 19.6995 86.9647 44 86.9647Z" fill="white"/>
</mask>
<g mask="url(#mask0)">
<path fill-rule="evenodd" clip-rule="evenodd" d="M44 39.5833C41.2238 39.5833 39 41.8071 39 44.5833C39 47.3596 41.2238 49.5833 44 49.5833C46.7762 49.5833 49 47.3596 49 44.5833C49 41.8071 46.7762 39.5833 44 39.5833ZM44 37.0833C48.1271 37.0833 51.5 40.4563 51.5 44.5833C51.5 48.7104 48.1271 52.0833 44 52.0833C39.8729 52.0833 36.5 48.7104 36.5 44.5833C36.5 40.4563 39.8729 37.0833 44 37.0833ZM39.8333 30L37.75 34.1667H31.9167C30.3008 34.1667 29 35.4675 29 37.0833V52.0833C29 53.6992 30.3008 55 31.9167 55H56.0833C57.6992 55 59 53.6992 59 52.0833V37.0833C59 35.4675 57.6992 34.1667 56.0833 34.1667H50.25L48.1667 30H39.8333Z" fill="#DBDBDB"/>
</g>
</svg>
