<svg width="21" height="19" viewBox="0 0 21 19" fill="none" xmlns="http://www.w3.org/2000/svg">
<mask id="mask0" mask-type="alpha" maskUnits="userSpaceOnUse" x="0" y="0" width="21" height="19">
<path fill-rule="evenodd" clip-rule="evenodd" d="M0 0H21V18.9595H0V0Z" fill="white"/>
</mask>
<g mask="url(#mask0)">
<path fill-rule="evenodd" clip-rule="evenodd" d="M16.5471 16.0584C16.1455 16.0584 15.8271 16.3847 15.8271 16.7956C15.8271 17.207 16.1455 17.533 16.5471 17.533C16.9487 17.533 17.2671 17.207 17.2671 16.7956C17.2671 16.3847 16.9485 16.0584 16.5471 16.0584ZM9.66591 16.0584C9.26607 16.0584 8.94558 16.3868 8.94558 16.7956C8.94558 17.2061 9.265 17.533 9.66591 17.533C10.0667 17.533 10.3859 17.2061 10.3859 16.7956C10.3859 16.3868 10.0654 16.0584 9.66591 16.0584ZM6.48673 8.69375L7.89797 13.6426L18.4391 13.6729L19.1146 8.69375H6.48673ZM17.8467 15.0922C18.3558 15.5002 18.6602 16.1253 18.6602 16.7956C18.6602 17.9869 17.7102 18.9596 16.5471 18.9596C15.3838 18.9596 14.434 17.9869 14.434 16.7956C14.434 16.1202 14.7424 15.4926 15.2568 15.0847L10.9433 15.0721C11.463 15.4765 11.7787 16.1223 11.7787 16.7956C11.7787 17.9872 10.8292 18.9596 9.66591 18.9596C8.50232 18.9596 7.55278 17.9872 7.55278 16.7956C7.55278 16.1172 7.87273 15.4692 8.39767 15.0649L6.85644 15.0603L2.96858 1.42659H0V0H4.00778L6.08004 7.26716H19.308L19.4353 6.32773L5.86341 4.16864L6.07556 2.76441L21 5.13861L19.6491 15.0973L17.8467 15.0922Z" fill="#FFB6B6"/>
</g>
</svg>
