<svg width="22" height="10" viewBox="0 0 22 10" fill="none" xmlns="http://www.w3.org/2000/svg">
<path d="M11.0001 0C6.34873 0 2.61249 2.23002 0 5.66895C0.315445 6.08394 0.653454 6.86592 1.01115 7.24419C2.94563 4.80734 5.24401 3.05668 8.30577 2.40079C8.38828 2.38929 8.47212 2.38243 8.55795 2.38243C9.60096 2.38243 10.4471 3.22834 10.4471 4.27134C10.4471 5.31479 9.60096 6.16026 8.55795 6.16026C7.79057 6.16026 7.13137 5.70191 6.83561 5.04447C6.82521 5.16481 6.8188 5.28603 6.8188 5.40859C6.8188 7.71758 8.69068 9.58968 10.9999 9.58968C13.3089 9.58968 15.1814 7.71758 15.1814 5.40859C15.1814 4.25896 14.7169 3.21816 13.9661 2.46251C16.9153 3.16153 19.1123 4.87967 20.9891 7.24419C21.3468 6.86614 21.6848 6.08416 22 5.66895C19.3875 2.23002 15.6524 0 11.0001 0Z" fill="#FFB6B6"/>
</svg>
