<svg width="66" height="46" viewBox="0 0 66 46" fill="none" xmlns="http://www.w3.org/2000/svg">
<path fill-rule="evenodd" clip-rule="evenodd" d="M31.2808 30.0226V24.8026V24.8015H34.0263C35.1581 24.8022 36.1094 24.4364 36.88 23.7041C37.6588 23.009 38.0943 22.0097 38.0721 20.9681C38.0875 19.9322 37.6529 18.9403 36.88 18.2475C36.1162 17.5111 35.0888 17.1094 34.0263 17.1315H29.6191V30.0226H31.2808ZM31.2808 23.2186V18.7186V18.7175H34.0675C34.6886 18.7001 35.2873 18.9492 35.7117 19.4015C36.1386 19.8152 36.3795 20.3834 36.3795 20.9768C36.3795 21.5702 36.1386 22.1384 35.7117 22.5521C35.2821 22.9949 34.6853 23.2368 34.0675 23.2186H31.2808Z" fill="#5F6368"/>
<path fill-rule="evenodd" clip-rule="evenodd" d="M44.8113 21.8958C44.1005 21.2416 43.131 20.9146 41.9028 20.9146C40.3251 20.9146 39.1337 21.4906 38.3286 22.6426L39.7922 23.5611C40.333 22.7807 41.0675 22.3906 41.9957 22.3906C42.5875 22.3836 43.1602 22.5992 43.5996 22.9943C44.0377 23.3553 44.2898 23.8935 44.286 24.46V24.8386C43.6474 24.4786 42.8348 24.2986 41.8481 24.2986C40.6922 24.2999 39.7681 24.5701 39.0759 25.1091C38.3837 25.648 38.0376 26.3739 38.0376 27.2866C38.0225 28.1176 38.3842 28.9111 39.0222 29.4466C39.6786 30.0226 40.4943 30.3106 41.4693 30.3106C42.6115 30.3106 43.5267 29.8066 44.2147 28.7986H44.287V30.0226H45.8764V24.5866C45.8771 23.4469 45.5221 22.55 44.8113 21.8958ZM40.3041 28.4026C39.956 28.1525 39.7507 27.7502 39.7529 27.3226C39.7529 26.8422 39.979 26.4421 40.4341 26.113C40.8848 25.7886 41.4477 25.6264 42.1227 25.6264C43.0495 25.6264 43.772 25.8322 44.2901 26.2436C44.2901 26.9389 44.0149 27.5447 43.4644 28.0611C42.9686 28.5552 42.2965 28.8334 41.5952 28.8346C41.1277 28.8433 40.6716 28.6906 40.3041 28.4026Z" fill="#5F6368"/>
<path fill-rule="evenodd" clip-rule="evenodd" d="M54.9999 21.2025L49.4513 33.9105H47.7359L49.795 29.464L46.1465 21.2025H47.9527L50.5897 27.5385H50.6258L53.1906 21.2025H54.9999Z" fill="#5F6368"/>
<path fill-rule="evenodd" clip-rule="evenodd" d="M24.5676 23.6773C24.5683 23.1727 24.5255 22.6689 24.4397 22.1715H17.4316V25.0237H21.4455C21.2795 25.9443 20.7434 26.7572 19.9613 27.2743V29.1257H22.3569C23.7595 27.8369 24.5676 25.9309 24.5676 23.6773Z" fill="#4285F4"/>
<path fill-rule="evenodd" clip-rule="evenodd" d="M17.4306 30.9144C19.436 30.9144 21.1245 30.2581 22.3558 29.1267L19.9603 27.2753C19.2935 27.7258 18.4348 27.9829 17.4306 27.9829C15.4923 27.9829 13.8471 26.6808 13.2588 24.926H10.791V26.834C12.0524 29.3355 14.6214 30.9142 17.4306 30.9144Z" fill="#34A853"/>
<path fill-rule="evenodd" clip-rule="evenodd" d="M13.2591 24.926C12.9481 24.0065 12.9481 23.0107 13.2591 22.0912V20.1832H10.7913C9.73624 22.2755 9.73624 24.7417 10.7913 26.834L13.2591 24.926Z" fill="#FBBC04"/>
<path fill-rule="evenodd" clip-rule="evenodd" d="M17.4306 19.0343C18.4903 19.0171 19.5143 19.4161 20.2813 20.1452L22.4023 18.0315C21.0573 16.7726 19.2756 16.0814 17.4306 16.1029C14.6214 16.103 12.0524 17.6818 10.791 20.1832L13.2588 22.0912C13.8471 20.3365 15.4923 19.0343 17.4306 19.0343Z" fill="#EA4335"/>
</svg>
