<svg width="18" height="15" viewBox="0 0 18 15" fill="none" xmlns="http://www.w3.org/2000/svg">
<path fill-rule="evenodd" clip-rule="evenodd" d="M16.556 6.15725C16.4028 5.50251 15.7143 5.03485 15.0447 5.03485H10.4534C10.5299 4.71683 10.9889 2.50943 11.1612 1.70505C11.2376 1.27479 11.1039 0.863242 10.7976 0.545227C10.568 0.320746 9.97515 -0.0346817 9.9367 0.00273183C8.36819 1.55539 6.81862 3.08934 5.24973 4.6233C5.03949 4.82907 4.82905 5.03485 4.77147 5.33415C4.75253 5.44639 4.7334 5.55863 4.7334 5.67087V13.0974C4.7334 13.8083 5.30731 14.4256 6.01495 14.5192C6.0534 14.5192 6.09166 14.5379 6.12973 14.5379H13.036C13.1317 14.5192 13.2273 14.5005 13.323 14.463C13.7821 14.3321 14.0882 14.0328 14.2795 13.6025C14.7578 12.4988 15.2169 11.3951 15.6952 10.2914C15.9439 9.71153 16.2115 9.13162 16.4411 8.53301C16.4795 8.36465 16.5752 6.25078 16.556 6.15725Z" fill="#FFB6B6"/>
<path fill-rule="evenodd" clip-rule="evenodd" d="M3.56596 5.78311H3.39378H0.141602V14.0141H3.58509C3.56596 11.1519 3.56596 8.68266 3.56596 5.78311Z" fill="#FFB6B6"/>
</svg>
