<svg width="36" height="30" viewBox="0 0 36 30" fill="none" xmlns="http://www.w3.org/2000/svg">
<path fill-rule="evenodd" clip-rule="evenodd" d="M18 11.5C14.6685 11.5 12 14.1685 12 17.5C12 20.8315 14.6685 23.5 18 23.5C21.3315 23.5 24 20.8315 24 17.5C24 14.1685 21.3315 11.5 18 11.5ZM18 8.5C22.9525 8.5 27 12.5475 27 17.5C27 22.4525 22.9525 26.5 18 26.5C13.0475 26.5 9 22.4525 9 17.5C9 12.5475 13.0475 8.5 18 8.5ZM13 0L10.5 5H3.5C1.561 5 0 6.561 0 8.5V26.5C0 28.439 1.561 30 3.5 30H32.5C34.439 30 36 28.439 36 26.5V8.5C36 6.561 34.439 5 32.5 5H25.5L23 0H13Z" fill="white"/>
</svg>
