<svg width="140" height="140" viewBox="0 0 140 140" fill="none" xmlns="http://www.w3.org/2000/svg">
<g filter="url(#filter0_b)">
<path fill-rule="evenodd" clip-rule="evenodd" d="M70 135C105.899 135 135 105.899 135 70C135 34.1015 105.899 5 70 5C34.1015 5 5 34.1015 5 70C5 105.899 34.1015 135 70 135Z" fill="white" fill-opacity="0.3"/>
</g>
<g filter="url(#filter1_d)">
<path fill-rule="evenodd" clip-rule="evenodd" d="M105.1 70C105.1 89.3852 89.3852 105.1 70 105.1C50.6148 105.1 34.9 89.3852 34.9 70C34.9 50.6148 50.6148 34.9 70 34.9C89.3852 34.9 105.1 50.6148 105.1 70ZM62.2 80.4L83 70L62.2 59.6V80.4Z" fill="#FFB6B6"/>
</g>
<defs>
<filter id="filter0_b" x="-11.3097" y="-11.3097" width="162.619" height="162.619" filterUnits="userSpaceOnUse" color-interpolation-filters="sRGB">
<feFlood flood-opacity="0" result="BackgroundImageFix"/>
<feGaussianBlur in="BackgroundImage" stdDeviation="8.15485"/>
<feComposite in2="SourceAlpha" operator="in" result="effect1_backgroundBlur"/>
<feBlend mode="normal" in="SourceGraphic" in2="effect1_backgroundBlur" result="shape"/>
</filter>
<filter id="filter1_d" x="0.900024" y="0.900002" width="138.2" height="138.2" filterUnits="userSpaceOnUse" color-interpolation-filters="sRGB">
<feFlood flood-opacity="0" result="BackgroundImageFix"/>
<feColorMatrix in="SourceAlpha" type="matrix" values="0 0 0 0 0 0 0 0 0 0 0 0 0 0 0 0 0 0 127 0"/>
<feOffset/>
<feGaussianBlur stdDeviation="17"/>
<feColorMatrix type="matrix" values="0 0 0 0 1 0 0 0 0 1 0 0 0 0 1 0 0 0 1 0"/>
<feBlend mode="normal" in2="BackgroundImageFix" result="effect1_dropShadow"/>
<feBlend mode="normal" in="SourceGraphic" in2="effect1_dropShadow" result="shape"/>
</filter>
</defs>
</svg>
