<svg width="117" height="48" viewBox="0 0 117 48" fill="none" xmlns="http://www.w3.org/2000/svg">
<path fill-rule="evenodd" clip-rule="evenodd" d="M12.0609 2.99733C30.5934 4.60254 45.5966 5.69501 59.6872 6.72804C64.3412 7.06925 63.3698 6.84841 65.6398 4.68033C68.6918 1.76533 72.8442 0 77.3994 0C82.8594 0 87.7842 2.50786 90.8544 6.53592C92.5242 8.72665 91.5114 9.18544 95.6481 9.54757C100.22 9.94806 104.926 10.3815 109.849 10.8626C114.873 11.3536 117.344 14.4892 116.632 18.9401C115.92 23.3909 114.816 31.5762 114.032 36.2921C113.247 41.008 111.055 42.5174 106.452 42.8943C101.85 43.2712 17.963 47.1782 10.9093 47.5995C3.85583 48.0208 2.43249 42.4628 1.88337 37.3793C1.54485 34.2446 0.701508 22.6465 0.0231954 13.3156C-0.287163 9.04808 2.45392 2.16562 12.0609 2.99733Z" fill="#FEFEFE"/>
<path fill-rule="evenodd" clip-rule="evenodd" d="M37.9857 16.3619L37.4036 24.7854C38.1432 24.6533 39.0337 24.478 39.6629 24.1875C42.166 23.0326 43.0075 19.984 41.2164 17.8661C40.4341 16.9404 39.1652 16.4868 37.9857 16.3619ZM32.6247 17.0574C32.3778 17.1303 32.1342 17.2087 31.8938 17.2924C31.3932 17.4666 30.9004 17.6505 30.4331 17.8817C29.8043 18.1928 29.2406 18.0121 28.8481 17.3269L26.8065 13.5809C28.2517 12.7947 29.7873 12.1575 31.428 11.7036C33.2619 11.1963 35.435 10.8686 37.3102 10.8747C40.4285 10.8834 43.3371 11.8816 45.4034 14.3256C46.5795 15.7166 47.3033 17.4003 47.5467 19.1463C47.789 20.8831 47.5534 22.6923 46.8128 24.3446C45.92 26.3361 44.3165 28.0783 41.9604 29.1654C41.7826 29.2474 41.6022 29.3254 41.4196 29.3993L45.286 36.961C45.7849 37.8424 45.8785 38.6783 44.8481 39.1956L42.7184 40.294C41.8618 40.7918 41.1812 40.639 40.7639 39.7748L36.9722 32.2273L36.6111 36.5456C36.5463 38.0795 36.2646 38.5867 34.8532 38.4783L32.5744 38.3478C31.4001 38.2766 31.234 37.7022 31.3248 35.8653L32.6247 17.0574Z" fill="#E9503B"/>
<path fill-rule="evenodd" clip-rule="evenodd" d="M60.8883 32.243L55.0342 33.0406C54.0083 33.1807 54.0999 33.6013 53.9349 34.1041L53.3709 35.9177C53.1412 36.7049 52.8732 36.8199 51.8643 36.5078L47.833 35.2695C49.9001 28.6222 51.8755 22.2696 53.9292 15.6653C54.1968 14.7798 54.4835 14.3858 55.3547 14.3578L58.2657 14.1622C59.1823 14.0664 59.5814 14.3631 59.9599 15.2477L67.8003 32.2692L63.6728 34.1715C63.112 34.4678 62.7187 34.4225 62.4643 33.8035L62.1238 33.0733C61.7132 32.1823 61.8571 32.1109 60.8883 32.243ZM53.3022 24.8936L54.5661 25.7264C55.1992 26.1642 55.1353 26.1259 55.0642 26.9103L54.9302 28.3627L54.9315 28.3629C54.9195 28.4988 54.9572 28.6395 55.0481 28.7554C55.2381 28.9978 55.5889 29.0404 55.8316 28.8504L56.9159 27.9967C57.5768 27.4791 57.5553 27.4773 58.3498 27.817L59.6061 28.3612C59.7384 28.4267 59.8964 28.4399 60.0459 28.3853C60.3357 28.2795 60.4847 27.9587 60.3788 27.6692L59.9096 26.3827C59.6151 25.5782 59.5613 25.6538 60.1185 25.0172L61.1008 23.9083L61.0995 23.9071C61.1899 23.8037 61.2425 23.6669 61.2367 23.5188C61.2246 23.2113 60.9655 22.9717 60.6578 22.9838L59.2006 23.0316C58.4443 23.0592 58.4904 23.142 58.1119 22.508L57.3109 21.1492C57.2413 21.0244 57.1241 20.9261 56.9757 20.884C56.679 20.7997 56.37 20.9718 56.2858 21.2684L55.848 22.8072C55.6581 23.4727 55.6561 23.4013 54.9567 23.5606L53.4904 23.8875C53.3569 23.9179 53.2341 23.9971 53.1515 24.1194C52.9817 24.3712 53.0476 24.7221 53.3022 24.8936Z" fill="#B1C7A5"/>
<path fill-rule="evenodd" clip-rule="evenodd" d="M74.5237 20.5726L78.5895 20.1558C79.7989 19.9873 80.3776 20.5553 80.467 21.4406L80.7419 24.088C80.8341 25.1678 80.2037 25.6237 79.3666 25.7057L75.0546 26.1477L76.1152 36.7898C76.3142 38.3298 75.6923 38.7958 74.6368 38.9311L72.5019 39.1274C71.213 39.2899 70.6492 38.48 70.5501 37.423L68.6751 18.2365C68.6106 17.5886 68.588 16.9837 68.6044 16.4211C68.6784 13.8868 69.487 11.937 70.843 10.5208C72.2117 9.09136 74.0461 8.30949 76.1764 8.09911C76.6925 8.04832 77.2148 8.03097 77.7393 8.04631L80.1627 8.18904C81.159 8.25612 81.6137 9.07844 81.5041 10.0004L81.315 12.2124C81.1947 13.2919 80.6754 13.7417 79.5534 13.6946L77.5945 13.6459C77.2735 13.6365 76.978 13.6449 76.7112 13.6711C74.3156 13.9075 74.0397 15.568 74.2503 17.7021L74.5237 20.5726Z" fill="#F9B100"/>
<path fill-rule="evenodd" clip-rule="evenodd" d="M93.3852 21.9891C93.0982 26.4683 92.8114 30.9478 92.5244 35.4271C92.4837 37.1336 91.6423 37.3545 90.5059 37.2878L88.6426 37.171C87.4052 37.1082 86.9114 36.1771 87.064 34.8571L87.934 21.2747L84.2879 20.7968C83.0422 20.6138 82.7894 19.9826 82.953 18.7335L83.1777 17.0116C83.3604 15.9395 83.9828 15.2087 85.3195 15.4106L97.8626 17.0545C99.1226 17.2347 99.4788 17.8367 99.3609 18.8274L99.0461 21.2399C98.9137 22.3884 98.3818 22.6261 97.1395 22.4812L93.3852 21.9891Z" fill="#CB5499"/>
<path fill-rule="evenodd" clip-rule="evenodd" d="M107.643 24.2533L105.614 37.025C105.479 38.0095 104.957 38.2522 104.245 38.1245L101.336 37.6544C100.402 37.507 100.051 37.0607 100.196 36.2122L102.216 23.4959C102.44 22.0048 103.039 21.5896 104.267 21.8094L106.362 22.1417C107.432 22.3181 107.95 22.6318 107.643 24.2533Z" fill="#932873"/>
<path fill-rule="evenodd" clip-rule="evenodd" d="M6.32593 12.6172C8.64655 12.1568 10.5248 12.2536 12.2355 13.3924C14.5161 14.9104 15.4284 17.0423 16.1646 19.7888L19.6686 14.8375C20.0536 14.2317 20.6813 13.7763 21.5388 14.4656L23.9448 16.3633C24.521 16.8376 24.654 17.5832 24.1527 18.1926L20.1217 23.8892L27.026 31.6734C27.8662 32.6249 28.3464 33.4123 27.0693 34.5742L25.6787 35.9678C24.6244 37.1121 24.1367 36.8406 23.1324 35.7224L17.3263 29.1766C17.5478 31.735 17.7315 34.2703 17.8708 35.9416C18.0055 37.5573 17.3809 37.9425 16.3062 38.0501L14.2674 38.2275C12.9243 38.329 12.4664 37.5163 12.3536 36.0368C12.099 32.6941 11.5812 26.6036 11.2412 23.3471C11.0451 21.4673 10.8324 20.1846 9.98039 19.0653C9.43464 18.3713 8.16373 18.375 7.45389 18.4273L6.32593 12.6172Z" fill="#4EC0DD"/>
<path fill-rule="evenodd" clip-rule="evenodd" d="M84.066 13.4072V12.2274H83.6083V11.9593H84.8348V12.2274H84.3791V13.4072H84.066ZM85.0331 13.4072V11.9593H85.5021L85.7793 12.9468L86.0532 11.9593H86.5232V13.4072H86.2338L86.2328 12.4048L85.9279 13.4072H85.627L85.3236 12.4048L85.3225 13.4072H85.0331Z" fill="#FEFEFE"/>
<path fill-rule="evenodd" clip-rule="evenodd" d="M102.609 17.9331C102.849 18.9795 104.231 19.8542 106.364 19.8097C109.393 19.7468 111.237 17.0588 110.137 15.6314C108.607 13.6483 102.007 15.304 102.609 17.9331Z" fill="#932873"/>
</svg>
